<?xml version="1.0" standalone="no"?>
<!DOCTYPE svg PUBLIC "-//W3C//DTD SVG 1.1//EN" "http://www.w3.org/Graphics/SVG/1.1/DTD/svg11.dtd" >
<svg xmlns="http://www.w3.org/2000/svg">
<metadata>
<json>
<![CDATA[
{
	"fontFamily": "WFElectricSymbolsFont",
	"majorVersion": 2,
	"minorVersion": 0,
	"fontURL": "http://www.webfactory-i4.de/",
	"description": "WEBfactory Electric symbols library font\nFont generated by IcoMoon.",
	"version": "Version 2.0",
	"fontId": "WFElectricSymbolsFont",
	"psName": "WFElectricSymbolsFont",
	"subFamily": "Regular",
	"fullName": "WFElectricSymbolsFont"
}
]]>
</json>
</metadata>
<defs>
<font id="WFElectricSymbolsFont" horiz-adv-x="1024">
<font-face units-per-em="1024" ascent="860.16" descent="-163.84" />
<missing-glyph horiz-adv-x="1024" />
<glyph unicode="&#x20;" horiz-adv-x="512" d="" />
<glyph unicode="&#xe600;" glyph-name="antenna_bg" data-tags="antenna_bg" d="M101.333 821.333l368-389.333v389.333h-368zM512 821.333v-386.667l368 386.667h-368z" />
<glyph unicode="&#xe601;" glyph-name="antenna_fg" data-tags="antenna_fg" d="M0 864l36-36 433.333-453.333v-534.667h42.667v536l433.333 452 36 36h-981.333zM101.333 821.333h368v-389.333l-368 389.333zM512 821.333h368l-368-386.667v386.667z" />
<glyph unicode="&#xe602;" glyph-name="battery_fg" data-tags="battery_fg" d="M170.667 821.333v-469.333h-170.667v-42.667h170.667v-469.333h42.667v981.333h-42.667zM426.667 821.333v-981.333h42.667v981.333h-42.667zM682.667 821.333v-981.333h42.667v981.333h-42.667zM298.667 565.333v-469.333h42.667v469.333h-42.667zM554.667 565.333v-469.333h42.667v469.333h-42.667zM810.667 565.333v-469.333h42.667v213.333h170.667v42.667h-170.667v213.333h-42.667z" />
<glyph unicode="&#xe603;" glyph-name="capacitor_fg" data-tags="capacitor_fg" d="M241.333 821.333c110.159-126.261 177.577-289.608 182.667-469.333h-424v-42.667h424c-5.091-179.686-72.311-343.114-182.667-469.333h54.667c107.621 134.913 172 304.815 172 490.667 0 185.385-64.817 355.926-172 490.667h-54.667zM554.667 821.333v-981.333h42.667v469.333h426.667v42.667h-426.667v469.333h-42.667z" />
<glyph unicode="&#xe604;" glyph-name="chassis-ground_fg" data-tags="chassis-ground_fg" d="M597.333 864v-512h-314.667l-282.667-490.667 37.333-21.333 270.667 469.333h297.333l-258.667-448 37.333-21.333 270.667 469.333h294.667l-258.667-448 37.333-21.333 244 424 26.667 45.333 25.333 42.667h-384v512z" />
<glyph unicode="&#xe605;" glyph-name="circuit-braker_bg" data-tags="circuit-braker_bg" d="M128 821.333c-47.51 0-85.333-37.891-85.333-85.333s37.823-85.333 85.333-85.333c47.51 0 85.333 37.891 85.333 85.333s-37.823 85.333-85.333 85.333zM449.333 821.333c-47.51 0-85.333-37.891-85.333-85.333s37.823-85.333 85.333-85.333c47.51 0 85.333 37.891 85.333 85.333s-37.823 85.333-85.333 85.333zM770.667 821.333c-47.51 0-86.667-37.891-86.667-85.333s39.157-85.333 86.667-85.333c47.51 0 85.333 37.891 85.333 85.333s-37.823 85.333-85.333 85.333zM128 53.333c-47.51 0-85.333-37.891-85.333-85.333s37.823-85.333 85.333-85.333c47.51 0 85.333 37.891 85.333 85.333s-37.823 85.333-85.333 85.333zM449.333 53.333c-47.51 0-85.333-37.891-85.333-85.333s37.823-85.333 85.333-85.333c47.51 0 85.333 37.891 85.333 85.333s-37.823 85.333-85.333 85.333zM770.667 53.333c-47.51 0-86.667-37.891-86.667-85.333s39.157-85.333 86.667-85.333c47.51 0 85.333 37.891 85.333 85.333s-37.823 85.333-85.333 85.333z" />
<glyph unicode="&#xe606;" glyph-name="circuit-braker_fg" data-tags="circuit-braker_fg" d="M128.349 864c-70.632 0-128.349-57.635-128.349-128.167s57.717-128.167 128.349-128.167c34.62 0 66.438 13.623 89.577 36.047 4.359-5.728 9.346-10.98 13.37-17.356 43.499-68.925 70.859-166.228 70.859-273.69s-27.361-204.765-70.859-273.69c-4.266-6.759-8.616-12.811-13.37-18.691-23.143 22.449-54.936 36.047-89.577 36.047-70.632 0-128.349-57.635-128.349-128.167s57.717-128.167 128.349-128.167c70.632 0 128.349 57.635 128.349 128.167 0 20.155-4.989 39.068-13.37 56.073 6.864 8.622 13.891 16.935 20.054 26.701 49.408 78.288 78.881 184.549 78.881 301.726s-29.473 223.439-78.881 301.726c-6.207 9.836-13.333 18.025-20.054 26.701 8.134 16.801 13.37 34.901 13.37 54.738 0 70.532-57.717 128.167-128.349 128.167zM449.221 864c-70.632 0-128.349-57.635-128.349-128.167s57.717-128.167 128.349-128.167c28.269 0 54.948 9.77 76.207 25.366 1.642-2.419 3.76-4.16 5.348-6.675 43.499-68.925 70.859-166.228 70.859-273.69h-48.131v-42.722h46.794c-6.158-90.48-31.832-171.246-69.522-230.967-1.588-2.516-3.608-4.451-5.348-6.675-21.232 15.528-48.006 24.031-76.207 24.031-70.632 0-128.349-57.635-128.349-128.167s57.717-128.167 128.349-128.167c70.632 0 128.349 57.635 128.349 128.167 0 26.449-7.521 51.631-21.391 72.094 2.458 3.371 4.375 7.021 6.685 10.681 49.408 78.288 78.881 184.549 78.881 301.726s-29.473 223.439-78.881 301.726c-2.327 3.688-4.277 7.218-6.685 10.681 13.87 20.463 21.391 44.309 21.391 70.759 0 70.532-57.717 128.167-128.349 128.167zM770.093 864c-70.632 0-128.349-57.635-128.349-128.167s57.717-128.167 128.349-128.167c33.923 0 65.238 13.079 88.24 34.712 3.94-5.492 8.418-10.293 12.033-16.021 43.499-68.925 70.859-166.228 70.859-273.69h-45.457v-42.722h44.12c-6.158-90.48-31.832-171.246-69.522-230.967-4.068-6.446-8.899-11.687-13.37-17.356-22.932 21.271-53.301 34.712-86.903 34.712-70.632 0-128.349-57.635-128.349-128.167s57.717-128.167 128.349-128.167c70.632 0 128.349 57.635 128.349 128.167 0 20.78-5.833 40.011-14.707 57.408 6.41 8.196 12.912 16.167 18.718 25.366 43.419 68.798 71.388 158.576 77.544 259.004h1.337v42.722c0 117.177-29.473 223.439-78.881 301.726-5.737 9.090-12.411 17.044-18.718 25.366 8.65 17.222 14.707 35.575 14.707 56.073 0 70.532-57.717 128.167-128.349 128.167zM128.349 821.278c47.51 0 85.566-38.002 85.566-85.445s-38.056-85.445-85.566-85.445c-47.51 0-85.566 38.002-85.566 85.445s38.056 85.445 85.566 85.445zM449.221 821.278c47.51 0 85.566-38.002 85.566-85.445s-38.056-85.445-85.566-85.445c-47.51 0-85.566 38.002-85.566 85.445s38.056 85.445 85.566 85.445zM770.093 821.278c47.51 0 85.566-38.002 85.566-85.445s-38.056-85.445-85.566-85.445c-47.51 0-85.566 38.002-85.566 85.445s38.056 85.445 85.566 85.445zM382.372 352.668v-42.722h85.566v42.722h-85.566zM724.636 352.668v-42.722h85.566v42.722h-85.566zM128.349 53.611c47.51 0 85.566-38.002 85.566-85.445s-38.056-85.445-85.566-85.445c-47.51 0-85.566 38.002-85.566 85.445s38.056 85.445 85.566 85.445zM449.221 53.611c47.51 0 85.566-38.002 85.566-85.445s-38.056-85.445-85.566-85.445c-47.51 0-85.566 38.002-85.566 85.445s38.056 85.445 85.566 85.445zM770.093 53.611c47.51 0 85.566-38.002 85.566-85.445s-38.056-85.445-85.566-85.445c-47.51 0-85.566 38.002-85.566 85.445s38.056 85.445 85.566 85.445z" />
<glyph unicode="&#xe607;" glyph-name="coaxial-cable_bg" data-tags="coaxial-cable_bg" d="M490.667 824c-74.683 0-141.79-34.323-185.333-88h370.667c-43.543 53.677-110.65 88-185.333 88zM278.667 693.333c-16.224-32.172-25.333-68.1-25.333-106.667 0-96.107 56.811-178.495 138.667-216 15.904 38.919 54.026 66.667 98.667 66.667s82.763-27.747 98.667-66.667c81.856 37.505 138.667 119.893 138.667 216 0 38.567-9.11 74.495-25.333 106.667h-424z" />
<glyph unicode="&#xe608;" glyph-name="coaxial-cable_fg" data-tags="coaxial-cable_fg" d="M490.667 864c-97.937 0-183.976-51.143-233.333-128h-257.333v-42.667h234.667c-13.745-32.859-21.333-68.877-21.333-106.667 0-98.986 52.43-185.582 130.667-234.667h-173.333v-42.667h216c8.525-41.662 41.004-74.141 82.667-82.667v-45.333h42.667v45.333c41.662 8.525 74.141 41.004 82.667 82.667h216v42.667h-173.333c78.237 49.084 130.667 135.68 130.667 234.667 0 37.79-7.588 73.807-21.333 106.667h234.667v42.667h-257.333c-49.357 76.857-135.396 128-233.333 128zM490.667 824c74.683 0 141.79-34.323 185.333-88h-370.667c43.543 53.677 110.65 88 185.333 88zM278.667 693.333h424c16.224-32.172 25.333-68.1 25.333-106.667 0-96.107-56.811-178.495-138.667-216-15.904 38.919-54.026 66.667-98.667 66.667s-82.763-27.747-98.667-66.667c-81.856 37.505-138.667 119.893-138.667 216 0 38.567 9.11 74.495 25.333 106.667zM469.333 96v-85.333h42.667v85.333h-42.667zM469.333-74.667v-85.333h42.667v85.333h-42.667z" />
<glyph unicode="&#xe609;" glyph-name="connector_fg" data-tags="connector_fg" d="M552 544.875l-180-183.049-9.333-9.825h-362.667v-42.667h364l8-8.076 180-183.049 30.667 29.611-181.333 183.049 181.333 183.049zM765.333 544.875l-180-183.049-30.667-30.957 30.667-29.611 180-183.049 30.667 29.611-160 161.514h388v42.667h-388l160 161.918z" />
<glyph unicode="&#xe60a;" glyph-name="fuse_bg" data-tags="fuse_bg" d="M213.333 693.333v-682.667h256v682.667h-256zM512 693.333v-682.667h256v682.667h-256z" />
<glyph unicode="&#xe60b;" glyph-name="fuse_fg" data-tags="fuse_fg" d="M469.333 864v-128h-298.667v-768h298.667v-128h42.667v128h298.667v768h-298.667v128h-42.667zM213.333 693.333h256v-682.667h-256v682.667zM512 693.333h256v-682.667h-256v682.667z" />
<glyph unicode="&#xe60c;" glyph-name="generator_bg" data-tags="generator_bg" d="M512 821.333c259.458 0 469.333-209.875 469.333-469.333s-209.875-469.333-469.333-469.333c-259.458 0-469.333 209.875-469.333 469.333s209.875 469.333 469.333 469.333z" />
<glyph unicode="&#xe60d;" glyph-name="generator_fg" data-tags="generator_fg" d="M512 864c-282.517 0-512-229.483-512-512s229.483-512 512-512c282.517 0 512 229.483 512 512s-229.483 512-512 512zM512 821.333c259.458 0 469.333-209.875 469.333-469.333s-209.875-469.333-469.333-469.333c-259.458 0-469.333 209.875-469.333 469.333s209.875 469.333 469.333 469.333zM532 650.667c-53.481-0.001-101.869-10.874-144-34.667-42.69-24.109-76.344-61.894-98.667-110.667-22.048-48.173-33.333-100.79-33.333-156 0-55.688 12.277-107.439 34.667-153.333 22.64-46.407 55.732-82.208 100-106.667 43.878-24.242 93.763-36 146.667-36 39.473 0 77.272 6.421 114.667 21.333 37.371 14.903 73.454 37.635 108 66.667l8 6.667v161.333h-170.667v-42.667h130.667v-97.333c-29.175-23.409-59.023-42.579-89.333-54.667-32.979-13.152-66.73-18.667-101.333-18.667-47.101 0-90.162 9.762-128 30.667-37.449 20.691-64.971 50.328-84 89.333-19.279 39.517-29.333 83.598-29.333 133.333 0 49.236 9.944 93.636 29.333 136 19.114 41.763 46.242 72.182 81.333 92 35.649 20.132 77.421 30.666 125.333 30.667 34.612-0.001 64.94-5.901 92-17.333 27.1-11.45 44.229-26.153 58.667-45.333 10.977-14.585 20.501-42.729 28-65.333h48c-9.325 38.282-22.204 66.584-41.333 92-19.361 25.721-44.941 44.981-77.333 58.667-32.434 13.702-68.999 19.999-108 20z" />
<glyph unicode="&#xe60e;" glyph-name="light-bulb_bg" data-tags="light-bulb_bg" d="M512 821.333c-258.974 0-469.333-210.359-469.333-469.333s210.359-469.333 469.333-469.333c258.974 0 469.333 210.359 469.333 469.333s-210.359 469.333-469.333 469.333z" />
<glyph unicode="&#xe60f;" glyph-name="light-bulb_fg" data-tags="light-bulb_fg" d="M512 864c-282.517 0-512-229.483-512-512s229.483-512 512-512c282.517 0 512 229.483 512 512s-229.483 512-512 512zM512 821.333c122.31 0 233.852-46.181 317.333-122.667l-317.333-316-316 316c83.401 76.095 194.042 122.667 316 122.667zM165.333 668l316-316-316-317.333c-76.486 83.481-122.667 195.024-122.667 317.333 0 121.958 46.571 232.599 122.667 316zM858.667 668c76.095-83.401 122.667-194.042 122.667-316s-46.571-232.599-122.667-316l-316 316 316 316zM512 321.333l317.333-316c-83.481-76.486-195.024-122.667-317.333-122.667-121.958 0-232.599 46.571-316 122.667l316 316z" />
<glyph unicode="&#xe610;" glyph-name="motor1_bg" data-tags="motor1_bg" d="M148 820c-58.083 0-104-48.584-104-106.667s48.584-104 106.667-104c58.083 0 104 48.584 104 106.667s-48.584 104-106.667 104zM489.333 820c-58.083 0-104-48.584-104-106.667s48.584-104 106.667-104c58.083 0 104 48.584 104 106.667s-48.584 104-106.667 104zM832 820c-58.083 0-104-48.584-104-106.667s48.584-104 106.667-104c58.083 0 104 48.584 104 106.667s-48.584 104-106.667 104zM490.667 306.667c-116.48 0-210.667-94.318-210.667-210.667s94.187-210.667 210.667-210.667c116.48 0 210.667 94.318 210.667 210.667s-94.187 210.667-210.667 210.667z" />
<glyph unicode="&#xe611;" glyph-name="motor1_fg" data-tags="motor1_fg" d="M148 864c-82.21 0-148-68.457-148-150.667 0-74.627 56.222-134.693 128-145.333v-226.667l8-6.667 137.333-102.667c-24.689-39.334-38.667-86.134-38.667-136 0-141.31 114.531-256 256-256s256 114.69 256 256c0 45.926-12.133 89.416-33.333 126.667l141.333 120v225.333c72.323 10.191 128 72.794 128 148 0 82.21-68.457 148-150.667 148s-148-68.457-148-150.667c0-74.627 56.222-134.693 128-145.333v-206.667l-122.667-104c-42.807 52.581-105.673 87.522-177.333 93.333v217.333c72.323 10.191 128 72.794 128 148 0 82.21-68.457 148-150.667 148s-148-68.457-148-150.667c0-74.627 56.222-134.693 128-145.333v-217.333c-67.341-5.461-126.826-36.591-169.333-84l-129.333 96v205.333c72.323 10.191 128 72.794 128 148 0 82.21-68.457 148-150.667 148zM148 820c58.083 0 106.667-45.917 106.667-104s-45.917-106.667-104-106.667c-58.083 0-106.667 45.917-106.667 104s45.917 106.667 104 106.667zM489.333 820c58.083 0 106.667-45.917 106.667-104s-45.917-106.667-104-106.667c-58.083 0-106.667 45.917-106.667 104s45.917 106.667 104 106.667zM832 820c58.083 0 106.667-45.917 106.667-104s-45.917-106.667-104-106.667c-58.083 0-106.667 45.917-106.667 104s45.917 106.667 104 106.667zM490.667 306.667c116.48 0 210.667-94.318 210.667-210.667s-94.187-210.667-210.667-210.667c-116.48 0-210.667 94.318-210.667 210.667s94.187 210.667 210.667 210.667z" />
<glyph unicode="&#xe612;" glyph-name="motor_bg" data-tags="motor_bg" d="M512 821.333c258.946 0 469.333-210.387 469.333-469.333s-210.387-469.333-469.333-469.333c-258.946 0-469.333 210.387-469.333 469.333s210.387 469.333 469.333 469.333z" />
<glyph unicode="&#xe613;" glyph-name="motor_fg" data-tags="motor_fg" d="M512 862.667c-282.005 0-510.667-228.662-510.667-510.667s228.662-510.667 510.667-510.667c282.005 0 510.667 228.662 510.667 510.667s-228.662 510.667-510.667 510.667zM512 821.333c258.946 0 469.333-210.387 469.333-469.333s-210.387-469.333-469.333-469.333c-258.946 0-469.333 210.387-469.333 469.333s210.387 469.333 469.333 469.333zM256 608v-554.667h42.667v493.333l213.333-212 213.333 212v-493.333h42.667v554.667h-42.667l-213.333-213.333-213.333 213.333h-42.667z" />
<glyph unicode="&#xe614;" glyph-name="transformer-2-coil_bg" data-tags="transformer-2-coil_bg" d="M512 821.333c-164.949 0-298.667-133.718-298.667-298.667 0.078-47.511 11.238-92.398 31.031-132.238 62.276 81.505 159.031 132.232 267.634 132.238 108.538-0.131 205.19-50.9 267.62-129.947 19.666 37.414 30.913 82.351 31.048 129.903 0 164.994-133.718 298.711-298.667 298.711zM512 480c-100.935-0.033-190.162-50.129-244.203-126.806 53.945-78.759 143.185-129.039 244.178-129.194 100.959 0.033 190.186 50.129 244.227 126.806-53.945 78.759-143.185 129.039-244.178 129.194zM243.833 312c-19.118-38.133-30.365-83.071-30.5-130.622 0-164.994 133.718-298.711 298.667-298.711s298.667 133.718 298.667 298.667c-0.078 47.511-11.238 92.398-31.031 132.238-62.276-81.505-159.031-132.232-267.634-132.238-108.538 0.131-205.19 50.9-267.62 129.947z" />
<glyph unicode="&#xe615;" glyph-name="transformer-2-coil_fg" data-tags="transformer-2-coil_fg" d="M512 864c-188.513 0-341.333-152.82-341.333-341.333 0.112-62.944 17.244-121.862 47.036-172.429-29.738-47.281-46.861-106.074-47.036-168.854 0-188.563 152.82-341.383 341.333-341.383s341.333 152.82 341.333 341.333c-0.112 62.944-17.244 121.862-47.036 172.429 29.738 47.281 46.861 106.074 47.036 168.854 0 188.563-152.82 341.383-341.333 341.383zM512 821.333c164.949 0 298.667-133.718 298.667-298.667-0.135-47.596-11.382-92.533-31.282-132.397-62.196 81.497-158.848 132.265-267.363 132.397-108.626-0.006-205.381-50.733-267.892-129.784-19.558 37.386-30.718 82.273-30.796 129.758 0 164.975 133.718 298.692 298.667 298.692zM512 480c101.017-0.154 190.258-50.435 244.198-127.295-54.036-78.576-143.263-128.673-244.193-128.705-101.022 0.154-190.262 50.435-244.202 127.295 54.036 78.576 143.263 128.673 244.193 128.705zM243.833 312c62.978-79.767 159.63-130.535 268.145-130.667 108.626 0.006 205.381 50.733 267.892 129.784 19.558-37.386 30.718-82.273 30.796-129.758 0-164.975-133.718-298.692-298.667-298.692s-298.667 133.718-298.667 298.667c0.135 47.596 11.382 92.533 31.282 132.397z" />
<glyph unicode="&#xe616;" glyph-name="transformer-3-coil_bg" data-tags="transformer-3-coil_bg" d="M512 821.333c-164.949 0-298.667-133.718-298.667-298.667 0.053-8.768 0.476-17.353 1.253-25.835 37.447 16.702 81.029 25.756 126.716 25.835 62.861-0.175 121.654-17.299 172.127-47.036 47.376 29.793 106.294 46.924 169.206 47.036 45.712-0.061 89.267-9.086 129.057-25.409-1.564 8.070-1.112 16.619-1.026 25.256 0.001 165.102-133.716 298.82-298.665 298.82zM337.5 480c-42.1-0.716-81.844-10.033-117.799-26.26 20.68-77.304 68.147-141.976 132.26-182.854 21.436 72.367 63.273 133.817 119.319 178.065-37.413 19.667-82.35 30.914-129.901 31.049-0.614 0.004-1.287 0.006-1.961 0.006s-1.347-0.002-2.020-0.007zM682.667 480c-47.511-0.078-92.398-11.238-132.238-31.031 58.45-44.227 100.169-105.917 119.595-176.824 66.122 39.275 113.738 104.181 132.063 180.486-34.853 17.969-76.038 27.288-119.391 27.369zM182.75 434.25c-84.638-53.656-140.021-146.812-140.083-252.907 0-164.958 133.718-298.676 298.667-298.676 47.511 0.078 92.398 11.238 132.238 31.031-81.505 62.276-132.232 159.031-132.238 267.634 0.161 15.787 1.367 31.141 3.553 46.177-79.083 43.236-137.359 116.719-161.571 204.343zM841.5 433.833c-24.837-89.967-83.134-163.39-160.328-207.536 0.235-14.035 1.383-29.313 1.494-44.837-0.131-108.664-50.9-205.317-129.946-267.746 37.414-19.666 82.351-30.913 129.903-31.048 164.994 0 298.711 133.718 298.711 298.667-0.158 105.902-55.409 198.865-138.621 251.779zM512.25 426.167c-59.376-41.728-102.404-103.238-119.668-174.795 34.851-17.972 76.036-27.29 119.388-27.372 43.404 0.151 84.55 9.525 121.663 26.26-19.451 72.697-62.268 134.131-120.449 175.28zM638.833 206c-37.534-15.534-81.115-24.588-126.802-24.667-45.712 0.061-89.267 9.086-129.056 25.409 1.564-8.070 1.112-16.619 1.026-25.256 0.032-101.088 50.128-190.315 126.805-244.356 78.759 53.945 129.039 143.185 129.194 244.178-0.053 8.792-0.476 17.377-1.253 25.859z" />
<glyph unicode="&#xe617;" glyph-name="transformer-3-coil_fg" data-tags="transformer-3-coil_fg" d="M512 864c-188.513 0-341.333-152.82-341.333-341.333 0.112-15.652 1.259-30.929 3.377-45.895-104.686-57.846-173.982-168.543-174.043-295.43 0-188.522 152.82-341.342 341.333-341.342 62.944 0.112 121.862 17.244 172.429 47.036 47.281-29.738 106.074-46.861 168.854-47.036 188.563 0 341.383 152.82 341.383 341.333-0.193 126.83-69.529 237.422-172.324 296.119 0.291 14.075 1.497 29.429 1.656 45.034 0.001 188.694-152.819 341.514-341.332 341.514zM512 821.333c164.949 0 298.667-133.718 298.667-298.667-0.087-8.79-0.539-17.339-1.342-25.786-37.422 16.7-80.977 25.725-126.633 25.786-62.968-0.112-121.887-17.244-172.454-47.036-47.281 29.738-106.074 46.861-168.854 47.036-45.768-0.078-89.35-9.133-129.156-25.494 1.582 8.141 1.16 16.726 1.107 25.398 0 165.044 133.717 298.762 298.666 298.762zM341.333 480c47.596-0.135 92.533-11.382 132.397-31.282-58.497-44.016-100.333-105.466-119.993-176.151-65.889 39.197-113.356 103.869-131.737 179.893 34.813 18.015 75.959 27.388 119.279 27.539zM682.667 480c43.382-0.082 84.567-9.4 121.722-26.092-20.626-77.583-68.243-142.488-132.594-183.438-21.196 72.581-62.916 134.271-118.925 178.741 37.399 19.551 82.286 30.711 129.771 30.789zM182.75 434.25c24.777-90.021 83.053-163.505 160.247-207.703-0.297-14.075-1.503-29.429-1.662-45.033 0.005-108.785 50.732-205.541 129.783-268.051-37.386-19.558-82.273-30.718-129.758-30.796-164.975 0-298.692 133.718-298.692 298.667 0.063 106.105 55.445 199.261 138.865 252.194zM841.5 433.833c84.425-53.635 139.676-146.598 139.833-252.476 0-164.973-133.718-298.69-298.667-298.69-47.596 0.135-92.533 11.382-132.397 31.282 81.497 62.196 132.265 158.848 132.397 267.363-0.112 15.673-1.259 30.951-3.377 45.916 79.076 43.216 137.373 116.638 161.643 204.207zM512.25 426.167c59.116-41.776 101.933-103.21 119.087-174.631-34.816-18.011-75.963-27.385-119.282-27.536-43.437 0.082-84.622 9.4-121.776 26.092 19.567 72.837 62.596 134.347 121.022 175.442zM638.833 206c0.691-7.314 1.113-15.899 1.166-24.571-0.154-101.112-50.435-190.353-127.294-244.293-78.576 54.036-128.673 143.263-128.705 244.193 0.087 8.795 0.539 17.344 1.342 25.791 37.422-16.7 80.977-25.725 126.633-25.786 45.743 0.078 89.324 9.133 129.131 25.494z" />
<glyph unicode="&#xe61c;" glyph-name="coupling-closed_bg" data-tags="coupling-closed_bg" d="M384 508.444v-312.889h256v312.889z" />
<glyph unicode="&#xe61d;" glyph-name="coupling-closed_fg" data-tags="coupling-closed_fg" d="M504.889 864v-114.222c-90.909-3.783-163.556-78.384-163.556-170.222h14.222c0 86.402 70.043 156.444 156.444 156.444s156.444-70.043 156.444-156.444h14.222c0 91.838-72.647 166.44-163.556 170.222v114.222h-14.222zM504.889 579.556v-71.111h-120.889v-312.889h121.333v-71.111h14.222v71.111h120.444v312.889h-120.889v71.111h-14.222zM398.667 494.222h106.222v-71.111l-23.111 22.667-9.778-10.222 30.222-30.222-30.222-29.778 9.778-10.667 23.556 23.556v-178.667h-106.667v284.444zM519.111 493.778h106.222v-284h-105.778v177.778l22.667-22.667 9.778 10.667-30.222 29.778 30.222 29.778-9.778 10.667-23.111-22.667v70.667zM341.333 124.444c0-91.838 72.647-166.44 163.556-170.222v-114.222h14.222v114.222c90.909 3.783 163.556 78.384 163.556 170.222h-14.222c0-86.402-70.043-156.444-156.444-156.444s-156.444 70.043-156.444 156.444h-14.222z" />
<glyph unicode="&#xe61e;" glyph-name="coupling-open_bg" data-tags="coupling-open_bg" d="M384 508.444v-312.889h256v312.889z" />
<glyph unicode="&#xe61f;" glyph-name="coupling-open_fg" data-tags="coupling-open_fg" d="M504.889 864v-114.222c-90.909-3.783-163.556-78.384-163.556-170.222h14.222c0 86.402 70.043 156.444 156.444 156.444s156.444-70.043 156.444-156.444h14.222c0 91.838-72.647 166.44-163.556 170.222v114.222h-14.222zM504.889 579.556v-71.111h-120.889v-312.889h121.333v-71.111h14.222v71.111h120.444v312.889h-120.889v71.111h-14.222zM398.667 494.222h106.222v-71.111l-23.111 22.667-9.778-10.222 30.222-30.222-30.222-29.778 9.778-10.667 30.222 30.222 30.222-30.222 9.778 10.667-30.222 29.778 30.222 29.778-9.778 10.667-23.111-22.667v70.667h106.222v-284h-105.778v79.556l60.889 59.111-10.222 10.222-64.889-63.556v-85.333h-106.667v284.444zM341.333 124.444c0-91.838 72.647-166.44 163.556-170.222v-114.222h14.222v114.222c90.909 3.783 163.556 78.384 163.556 170.222h-14.222c0-86.402-70.043-156.444-156.444-156.444s-156.444 70.043-156.444 156.444h-14.222z" />
<glyph unicode="&#xe620;" glyph-name="energy-meter-border_bg" data-tags="energy-meter-border_bg" d="M256 864v-1024h512v1024z" />
<glyph unicode="&#xe621;" glyph-name="energy-meter-border_fg" data-tags="energy-meter-border_fg" d="M256 864v-1024h512v1024h-512zM277.333 842.667h224v-299.333c-101.057-5.647-181.333-88.848-181.333-191.333s80.276-185.687 181.333-191.333v-299.333h-224v981.333zM522.667 842h224v-980.667h-224v299.333c101.057 5.647 181.333 88.848 181.333 191.333s-80.276 185.687-181.333 191.333v298.667zM512 522.667c94.073 0 170.667-76.594 170.667-170.667s-76.594-170.667-170.667-170.667c-94.073 0-170.667 76.594-170.667 170.667s76.594 170.667 170.667 170.667zM405.333 416v-128h21.333v42.667h21.333c21.333 0 42.667 6.823 42.667 42.667s-21.333 42.667-42.667 42.667h-42.667zM512 416v-128h21.333v106.667l21.333-85.333h21.333l21.333 85.333v-106.667h21.333v128h-32.667l-20-73.333-19.333 73.333h-34.667zM426.667 394.667h21.333c13.165 0 21.333-7.438 21.333-21.333 0-14.985-9.163-21.333-21.333-21.333h-21.333v42.667z" />
<glyph unicode="&#xe622;" glyph-name="energy-meter_bg" data-tags="energy-meter_bg" d="M512 544c105.832 0 192-86.168 192-192s-86.168-192-192-192c-105.832 0-192 86.168-192 192s86.168 192 192 192z" />
<glyph unicode="&#xe623;" glyph-name="energy-meter_fg" data-tags="energy-meter_fg" d="M501.333 864v-320.667c-101.057-5.647-181.333-88.848-181.333-191.333s80.276-185.687 181.333-191.333v-320.667h21.333v320.667c101.057 5.647 181.333 88.848 181.333 191.333s-80.276 185.687-181.333 191.333v320.667zM512 522.667c94.073 0 170.667-76.594 170.667-170.667s-76.594-170.667-170.667-170.667c-94.073 0-170.667 76.594-170.667 170.667s76.594 170.667 170.667 170.667zM405.333 416v-128h21.333v42.667h21.333c21.333 0 42.667 6.823 42.667 42.667s-21.333 42.667-42.667 42.667zM512 416v-128h21.333v106.667l21.333-85.333h21.333l21.333 85.333v-106.667h21.333v128h-32.667l-20-73.333-19.333 73.333zM426.667 394.667h21.333c13.165 0 21.333-7.438 21.333-21.333 0-14.985-9.163-21.333-21.333-21.333h-21.333z" />
<glyph unicode="&#xe624;" glyph-name="grounding-switch-border-closed_bg" data-tags="grounding-switch-border-closed_bg" d="M256 864v-1024h512v1024c-170.667 0-341.333 0-512 0z" />
<glyph unicode="&#xe625;" glyph-name="grounding-switch-border-closed_fg" data-tags="grounding-switch-border-closed_fg" d="M256 864v-1024h512v1024h-512zM277.333 842.667h224v-746.667h-118v-21.333h256v21.333h-116.667v746h224v-980.667h-469.333v981.333zM404.667 53.333v-21.333h213.333v21.333h-213.333zM426 10.667v-21.333h170.667v21.333h-170.667z" />
<glyph unicode="&#xe626;" glyph-name="grounding-switch-border-open_bg" data-tags="grounding-switch-border-open_bg" d="M256 864v-1024h512v1024c-170.667 0-341.333 0-512 0z" />
<glyph unicode="&#xe627;" glyph-name="grounding-switch-border-open_fg" data-tags="grounding-switch-border-open_fg" d="M256 864v-1024h512v1024h-512zM277.333 842.667h224v-326h21.333v325.333h224v-980.667h-469.333v981.333zM626 456.667l-125.333-126v-234.667h-117.333v-21.333h256v21.333h-117.333v226l118.667 119.333-14.667 15.333zM404.667 53.333v-21.333h213.333v21.333h-213.333zM426 10.667v-21.333h170.667v21.333h-170.667z" />
<glyph unicode="&#xe629;" glyph-name="grounding-switch-closed_fg" data-tags="grounding-switch-closed_fg" d="M501.333 864v-768h-118v-21.333h256v21.333h-116.667v768h-21.333zM404.667 53.333v-21.333h213.333v21.333h-213.333zM426 10.667v-21.333h170.667v21.333h-170.667z" />
<glyph unicode="&#xe62b;" glyph-name="grounding-switch-open_fg" data-tags="grounding-switch-open_fg" d="M490.667 864v-347.333h21.333v347.333h-21.333zM616.667 456.667l-126-126v-234.667h-117.333v-21.333h256v21.333h-117.333v226l119.333 119.333-14.667 15.333zM394.667 53.333v-21.333h213.333v21.333h-213.333zM416 10.667v-21.333h170.667v21.333h-170.667z" />
<glyph unicode="&#xe62c;" glyph-name="input-closed_bg" data-tags="input-closed_bg" d="M370.222 465.778v-312.889h284.889v312.889z" />
<glyph unicode="&#xe62d;" glyph-name="input-closed_fg" data-tags="input-closed_fg" d="M440.889 864l64.444-90.222v-66.667c-91.13-3.783-164-78.384-164-170.222h14.222c0 86.402 70.277 156.444 156.889 156.444s156.889-70.043 156.889-156.444h14.222c0 91.838-72.87 166.44-164 170.222v68l63.556 88.889h-142.222zM504.889 536.889v-71.111h-134.667v-312.889h134.667v-71.111h15.111v71.111h135.111v312.889h-135.111v71.111h-15.111zM386.667 451.556h118.222v-78.222l-24 22.667-10.222-10.222 31.556-30.222-31.556-29.778 10.222-10.667 24 23.111v-171.111h-118.222v284.444zM520 451.111h118.667v-284h-118.667v171.111l24-23.111 10.667 10.667-31.556 29.778 31.556 29.778-10.667 10.667-24-22.667v77.778zM341.333 81.778c0-91.838 72.87-166.44 164-170.222v-57.333h-164v-14.222h341.333v14.222h-163.111v57.333c91.13 3.783 164 78.384 164 170.222h-14.222c0-86.402-70.277-156.444-156.889-156.444s-156.889 70.043-156.889 156.444h-14.222z" />
<glyph unicode="&#xe62e;" glyph-name="input-open_bg" data-tags="input-open_bg" d="M370.222 465.778v-312.889h284.889v312.889z" />
<glyph unicode="&#xe62f;" glyph-name="input-open_fg" data-tags="input-open_fg" d="M440.889 864l64-89.778v-67.111c-90.966-3.783-163.556-78.384-163.556-170.222h14.222c0 86.402 69.988 156.444 156.444 156.444s156.444-70.043 156.444-156.444h14.222c0 91.838-72.59 166.44-163.556 170.222v67.111l64 89.778h-142.222zM504.889 536.889v-71.111h-134.667v-312.889h134.667v-71.111h15.111v71.111h134.667v312.889h-135.111v71.111h-14.667zM386.222 451.556h118.667v-78.667l-24 23.111-10.667-10.222 31.556-30.222-31.556-29.778 10.667-10.667 31.111 30.222 31.556-30.222 10.667 10.667-31.556 29.778 32 29.778-10.667 10.667-24.444-22.667v77.778h118.667v-284h-118.222v65.333l63.111 59.111-10.667 10.222-67.556-63.556v-71.111h-118.667v284.444zM341.333 81.778c0-91.838 72.59-166.44 163.556-170.222v-57.333h-163.556v-14.222h341.333v14.222h-163.556v57.333c90.966 3.783 163.556 78.384 163.556 170.222h-14.222c0-86.402-69.988-156.444-156.444-156.444s-156.444 70.043-156.444 156.444h-14.222z" />
<glyph unicode="&#xe630;" glyph-name="load-breakswitch-border-closed_bg" data-tags="load-breakswitch-border-closed_bg" d="M277.333 842.667v-981.333h469.333v981.333z" />
<glyph unicode="&#xe631;" glyph-name="load-breakswitch-border-closed_fg" data-tags="load-breakswitch-border-closed_fg" d="M256 864v-1024h512v1024h-512zM277.333 842.667h224v-320h-74.667v-21.333h170.667v21.333h-74.667v319.333h224v-980.667h-224v470.667c42.070 5.271 74.667 40.501 74.667 84 0 47.128-38.205 85.333-85.333 85.333s-85.333-38.205-85.333-85.333c0-43.499 32.596-78.729 74.667-84v-470.667h-224v981.333zM512 480c35.346 0 64-28.654 64-64s-28.654-64-64-64c-35.346 0-64 28.654-64 64s28.654 64 64 64z" />
<glyph unicode="&#xe632;" glyph-name="load-breakswitch-border-open_bg" data-tags="load-breakswitch-border-open_bg" d="M277.333 842.667v-981.333h469.333v981.333z" />
<glyph unicode="&#xe633;" glyph-name="load-breakswitch-border-open_fg" data-tags="load-breakswitch-border-open_fg" d="M256 864v-1024h512v1024h-512zM277.333 842.667h224v-277.333h-74.667v-21.333h170.667v21.333h-74.667v276.667h224v-980.667h-224v311.333l159.333 159.333-14.667 15.333-166-166v-320h-224v981.333zM512 544c-47.128 0-85.333-38.205-85.333-85.333s38.205-85.333 85.333-85.333c47.128 0 85.333 38.205 85.333 85.333s-38.205 85.333-85.333 85.333zM512 522.667c35.346 0 64-28.654 64-64s-28.654-64-64-64c-35.346 0-64 28.654-64 64s28.654 64 64 64z" />
<glyph unicode="&#xe634;" glyph-name="load-breakswitch-closed_bg" data-tags="load-breakswitch-closed_bg" d="M597.333 416c0-47.128-38.205-85.333-85.333-85.333s-85.333 38.205-85.333 85.333c0 47.128 38.205 85.333 85.333 85.333s85.333-38.205 85.333-85.333z" />
<glyph unicode="&#xe635;" glyph-name="load-breakswitch-closed_fg" data-tags="load-breakswitch-closed_fg" d="M501.333 864v-341.333h-74.667v-21.333h170.667v21.333h-74.667v341.333h-21.333zM512 501.333c-47.128 0-85.333-38.205-85.333-85.333 0-43.499 32.596-78.729 74.667-84v-492h21.333v492c42.070 5.271 74.667 40.501 74.667 84 0 47.128-38.205 85.333-85.333 85.333zM512 480c35.346 0 64-28.654 64-64s-28.654-64-64-64c-35.346 0-64 28.654-64 64s28.654 64 64 64z" />
<glyph unicode="&#xe636;" glyph-name="load-breakswitch-open_bg" data-tags="load-breakswitch-open_bg" d="M597.333 458.667c0-47.128-38.205-85.333-85.333-85.333s-85.333 38.205-85.333 85.333c0 47.128 38.205 85.333 85.333 85.333s85.333-38.205 85.333-85.333z" />
<glyph unicode="&#xe637;" glyph-name="load-breakswitch-open_fg" data-tags="load-breakswitch-open_fg" d="M501.333 864v-298.667h-74.667v-21.333h170.667v21.333h-74.667v298.667zM512 544c-47.128 0-85.333-38.205-85.333-85.333s38.205-85.333 85.333-85.333c47.128 0 85.333 38.205 85.333 85.333s-38.205 85.333-85.333 85.333zM512 522.667c35.346 0 64-28.654 64-64s-28.654-64-64-64c-35.346 0-64 28.654-64 64s28.654 64 64 64zM667.333 347.333l-166-166v-341.333h21.333v332.667l159.333 159.333z" />
<glyph unicode="&#xe639;" glyph-name="module-part_fg" data-tags="module-part_fg" d="M0 693.333c0-275.515 217.941-499.319 490.667-510.667v-342.667h42.667v342.667c272.726 11.348 490.667 235.152 490.667 510.667h-42.667c0-259.206-210.128-469.333-469.333-469.333s-469.333 210.128-469.333 469.333h-42.667z" />
<glyph unicode="&#xe63b;" glyph-name="module1_fg" data-tags="module1_fg" d="M504.889 864v-114.222c-90.909-3.783-163.556-78.384-163.556-170.222h14.222c0 86.402 70.043 156.444 156.444 156.444s156.444-70.043 156.444-156.444h14.222c0 91.838-72.647 166.44-163.556 170.222v114.222h-14.222zM504.889 579.556v-455.111h14.222v455.111h-14.222zM341.333 124.444c0-91.838 72.647-166.44 163.556-170.222v-114.222h14.222v114.222c90.909 3.783 163.556 78.384 163.556 170.222h-14.222c0-86.402-70.043-156.444-156.444-156.444s-156.444 70.043-156.444 156.444h-14.222z" />
<glyph unicode="&#xe63d;" glyph-name="module2_fg" data-tags="module2_fg" d="M504.889 864v-114.222c-90.909-3.783-163.556-78.384-163.556-170.222h14.222c0 86.402 70.043 156.444 156.444 156.444s156.444-70.043 156.444-156.444h14.222c0 91.838-72.647 166.44-163.556 170.222v114.222h-14.222zM504.889 579.556v-455.111h14.222v455.111h-14.222zM341.333 124.444c0-92.078 72.647-166.874 163.556-170.667h14.222c90.909 3.792 163.556 78.589 163.556 170.667h-14.222c0-86.627-70.043-156.861-156.444-156.861s-156.444 70.234-156.444 156.861h-14.222z" />
<glyph unicode="&#xe63f;" glyph-name="module_fg" data-tags="module_fg" d="M504.889 864v-114.222c-90.909-3.783-163.556-78.384-163.556-170.222h14.222c0 86.402 70.043 156.444 156.444 156.444s156.444-70.043 156.444-156.444h14.222c0 91.838-72.647 166.44-163.556 170.222v114.222h-14.222zM341.333 124.444c0-91.838 72.647-166.44 163.556-170.222v-114.222h14.222v114.222c90.909 3.783 163.556 78.384 163.556 170.222h-14.222c0-86.402-70.043-156.444-156.444-156.444s-156.444 70.043-156.444 156.444h-14.222z" />
<glyph unicode="&#xe640;" glyph-name="powerswitch-border-closed_bg" data-tags="powerswitch-border-closed_bg" d="M277.333 842.667v-981.333h469.333v981.333c-156.444 0-312.889 0-469.333 0z" />
<glyph unicode="&#xe641;" glyph-name="powerswitch-border-closed_fg" data-tags="powerswitch-border-closed_fg" d="M256 864v-1024h512v1024h-266.667zM522.667 408.236l34.667-34.667 14.667 16-45.333 44.667 45.333 44.667-14.667 16-34.667-34v381.097h224v-980.667h-224zM501.333 408.236v-546.903h-224v981.333h224v-381.764l-34.667 34-14.667-15.333 45.333-45.333-45.333-44.667 14.667-16 34.667 34.667c-0.066 0.092 0 0 0 0z" />
<glyph unicode="&#xe642;" glyph-name="powerswitch-border-open_bg" data-tags="powerswitch-border-open_bg" d="M277.333 842.667v-981.333h469.333v981.333c-156.444 0-312.889 0-469.333 0z" />
<glyph unicode="&#xe643;" glyph-name="powerswitch-border-open_fg" data-tags="powerswitch-border-open_fg" d="M256 864v-1024h512v1024h-266.667zM277.333 842.667h224v-382l-34.667 34-14.667-15.333 45.333-45.333-45.333-44.667 14.667-16 45.333 45.333 45.333-45.333 14.667 16-45.333 44.667 45.333 44.667-14.667 16-34.667-34v381.333h224v-980.667h-224v311.333l159.333 159.333-14.667 15.333-166-166v-320h-224z" />
<glyph unicode="&#xe645;" glyph-name="powerswitch-closed_fg" data-tags="powerswitch-closed_fg" d="M501.333 863.506v-402.839l-34.667 34-14.667-15.333 45.333-45.333-45.333-44.667 14.667-16 34.667 34.667v-568h21.333v568l34.667-34.667 14.667 16-45.333 44.667 45.333 44.667-14.667 16-34.667-34v403.333z" />
<glyph unicode="&#xe647;" glyph-name="powerswitch-open_fg" data-tags="powerswitch-open_fg" d="M501.333 842.667v-382l-34.667 34-14.667-15.333 45.333-45.333-45.333-44.667 14.667-16 45.333 45.333 45.333-45.333 14.667 16-45.333 44.667 45.333 44.667-14.667 16-34.667-34v403.333h-21.333zM522.667-138.667v311.333l159.333 159.333-14.667 15.333-166-166v-341.333h21.333z" />
<glyph unicode="&#xe648;" glyph-name="switch-border-closed_bg" data-tags="switch-border-closed_bg" d="M277.333 842.667v-981.333h469.333v981.333z" />
<glyph unicode="&#xe649;" glyph-name="switch-border-closed_fg" data-tags="switch-border-closed_fg" d="M256 864v-1024h512v1024h-512zM277.333 842.667h224v-981.333h-224v981.333zM522.667 842h224v-980.667h-224v980.667z" />
<glyph unicode="&#xe64a;" glyph-name="switch-border-open_bg" data-tags="switch-border-open_bg" d="M277.333 842.667v-981.333h469.333v981.333z" />
<glyph unicode="&#xe64b;" glyph-name="switch-border-open_fg" data-tags="switch-border-open_fg" d="M256 864v-1024h512v1024h-512zM277.333 842.667h224v-490.667h21.333v490h224v-980.667h-224v311.333l159.333 159.333-14.667 15.333-166-166v-320h-224v981.333z" />
<glyph unicode="&#xe64d;" glyph-name="switch-closed_fg" data-tags="switch-closed_fg" d="M501.333 864h21.333v-1024h-21.333z" />
<glyph unicode="&#xe64f;" glyph-name="switch-open_fg" data-tags="switch-open_fg" d="M501.333 842.667v-490.667h21.333v512h-21.333zM667.333 347.333l-166-166v-341.333h21.333v332.667l159.333 159.333z" />
<glyph unicode="&#xe650;" glyph-name="transformer-border_bg" data-tags="transformer-border_bg" d="M277.333 842.667v-981.333h469.333v981.333z" />
<glyph unicode="&#xe651;" glyph-name="transformer-border_fg" data-tags="transformer-border_fg" d="M256 864v-1024h512v1024h-512zM277.333 842.667h224v-256.667c-77.493-5.473-138.667-69.781-138.667-148.667 0-31.795 9.73-61.116 26.667-85.333-16.937-24.217-26.667-53.539-26.667-85.333 0-78.886 61.174-143.194 138.667-148.667v-256.667h-224v981.333zM522.667 842h224v-980.667h-224v256.667c77.493 5.473 138.667 69.781 138.667 148.667 0 31.795-9.73 61.116-26.667 85.333 16.937 24.217 26.667 53.539 26.667 85.333 0 78.886-61.174 143.194-138.667 148.667v256zM512 565.333c70.692 0 128-57.308 128-128 0-25.082-7.533-48.25-20-68-27.202 28.574-65.434 46.667-108 46.667s-80.798-18.093-108-46.667c-12.467 19.75-20 42.918-20 68 0 70.692 57.308 128 128 128zM512 394.667c37.893 0 71.897-16.499 95.333-42.667-23.437-26.167-57.44-42.667-95.333-42.667s-71.897 16.499-95.333 42.667c23.437 26.167 57.44 42.667 95.333 42.667zM404 334.667c27.202-28.574 65.434-46.667 108-46.667s80.798 18.093 108 46.667c12.467-19.75 20-42.918 20-68 0-70.692-57.308-128-128-128s-128 57.308-128 128c0 25.082 7.533 48.25 20 68z" />
<glyph unicode="&#xe652;" glyph-name="transformer-powerswitch-border-closed_bg" data-tags="transformer-powerswitch-border-closed_bg" d="M277.333 842.667v-981.333h469.333v981.333z" />
<glyph unicode="&#xe653;" glyph-name="transformer-powerswitch-border-closed_fg" data-tags="transformer-powerswitch-border-closed_fg" d="M256 864v-1024h512v1024zM522.667 173.333l34.667-34.667 14.667 16-45.333 44.667 45.333 44.667-14.667 16-34.667-34v84c77.493 5.473 138.667 69.781 138.667 148.667 0 31.795-9.73 61.116-26.667 85.333 16.937 24.217 26.667 53.539 26.667 85.333 0 78.886-61.174 143.194-138.667 148.667v64h224v-980.667h-224v312zM501.333 173.333v-312h-224v981.333h224v-64.667c-77.493-5.473-138.667-69.781-138.667-148.667 0-31.795 9.73-61.116 26.667-85.333-16.937-24.217-26.667-53.539-26.667-85.333 0-78.886 61.174-143.194 138.667-148.667v-84l-34.667 34-14.667-15.333 45.333-45.333-45.333-44.667 14.667-16 34.667 34.667zM512 757.333c70.692 0 128-57.308 128-128 0-25.082-7.533-48.25-20-68-27.202 28.574-65.434 46.667-108 46.667s-80.798-18.093-108-46.667c-12.467 19.75-20 42.918-20 68 0 70.692 57.308 128 128 128zM512 586.667c37.893 0 71.897-16.499 95.333-42.667-23.437-26.167-57.44-42.667-95.333-42.667s-71.897 16.499-95.333 42.667c23.437 26.167 57.44 42.667 95.333 42.667zM404 526.667c27.202-28.574 65.434-46.667 108-46.667s80.798 18.093 108 46.667c12.467-19.75 20-42.918 20-68 0-70.692-57.308-128-128-128s-128 57.308-128 128c0 25.082 7.533 48.25 20 68z" />
<glyph unicode="&#xe654;" glyph-name="transformer-powerswitch-closed_bg" data-tags="transformer-powerswitch-closed_bg" d="M512 757.333c-70.692 0-128-57.308-128-128 0-25.082 7.533-48.25 20-68 27.202 28.574 65.434 46.667 108 46.667s80.798-18.093 108-46.667c12.467 19.75 20 42.918 20 68 0 70.692-57.308 128-128 128zM512 586.667c-37.893 0-71.897-16.499-95.333-42.667 23.437-26.167 57.44-42.667 95.333-42.667s71.897 16.499 95.333 42.667c-23.437 26.167-57.44 42.667-95.333 42.667zM404 526.667c-12.467-19.75-20-42.918-20-68 0-70.692 57.308-128 128-128s128 57.308 128 128c0 25.082-7.533 48.25-20 68-27.202-28.574-65.434-46.667-108-46.667s-80.798 18.093-108 46.667z" />
<glyph unicode="&#xe655;" glyph-name="transformer-powerswitch-closed_fg" data-tags="transformer-powerswitch-closed_fg" d="M501.333 864v-86c-77.493-5.473-138.667-69.781-138.667-148.667 0-31.795 9.73-61.116 26.667-85.333-16.937-24.217-26.667-53.539-26.667-85.333 0-78.886 61.174-143.194 138.667-148.667v-84l-34.667 34-14.667-15.333 45.333-45.333-45.333-44.667 14.667-16 34.667 34.667v-333.333h21.333v333.333l34.667-34.667 14.667 16-45.333 44.667 45.333 44.667-14.667 16-34.667-34v84c77.493 5.473 138.667 69.781 138.667 148.667 0 31.795-9.73 61.116-26.667 85.333 16.937 24.217 26.667 53.539 26.667 85.333 0 78.886-61.174 143.194-138.667 148.667v86h-21.333zM512 757.333c70.692 0 128-57.308 128-128 0-25.082-7.533-48.25-20-68-27.202 28.574-65.434 46.667-108 46.667s-80.798-18.093-108-46.667c-12.467 19.75-20 42.918-20 68 0 70.692 57.308 128 128 128zM512 586.667c37.893 0 71.897-16.499 95.333-42.667-23.437-26.167-57.44-42.667-95.333-42.667s-71.897 16.499-95.333 42.667c23.437 26.167 57.44 42.667 95.333 42.667zM404 526.667c27.202-28.574 65.434-46.667 108-46.667s80.798 18.093 108 46.667c12.467-19.75 20-42.918 20-68 0-70.692-57.308-128-128-128s-128 57.308-128 128c0 25.082 7.533 48.25 20 68z" />
<glyph unicode="&#xe656;" glyph-name="transformer-powerswitch-open_bg" data-tags="transformer-powerswitch-open_bg" d="M512 757.333c-70.692 0-128-57.308-128-128 0-25.082 7.533-48.25 20-68 27.202 28.574 65.434 46.667 108 46.667s80.798-18.093 108-46.667c12.467 19.75 20 42.918 20 68 0 70.692-57.308 128-128 128zM512 586.667c-37.893 0-71.897-16.499-95.333-42.667 23.437-26.167 57.44-42.667 95.333-42.667s71.897 16.499 95.333 42.667c-23.437 26.167-57.44 42.667-95.333 42.667zM404 526.667c-12.467-19.75-20-42.918-20-68 0-70.692 57.308-128 128-128s128 57.308 128 128c0 25.082-7.533 48.25-20 68-27.202-28.574-65.434-46.667-108-46.667s-80.798 18.093-108 46.667z" />
<glyph unicode="&#xe657;" glyph-name="transformer-powerswitch-open_fg" data-tags="transformer-powerswitch-open_fg" d="M501.333 864v-86c-77.493-5.473-138.667-69.781-138.667-148.667 0-31.795 9.73-61.116 26.667-85.333-16.937-24.217-26.667-53.539-26.667-85.333 0-78.886 61.174-143.194 138.667-148.667v-84l-34.667 34-14.667-15.333 45.333-45.333-45.333-44.667 14.667-16 45.333 45.333 45.333-45.333 14.667 16-45.333 44.667 45.333 44.667-14.667 16-34.667-34v84c77.493 5.473 138.667 69.781 138.667 148.667 0 31.795-9.73 61.116-26.667 85.333 16.937 24.217 26.667 53.539 26.667 85.333 0 78.886-61.174 143.194-138.667 148.667v86zM512 757.333c70.692 0 128-57.308 128-128 0-25.082-7.533-48.25-20-68-27.202 28.574-65.434 46.667-108 46.667s-80.798-18.093-108-46.667c-12.467 19.75-20 42.918-20 68 0 70.692 57.308 128 128 128zM512 586.667c37.893 0 71.897-16.499 95.333-42.667-23.437-26.167-57.44-42.667-95.333-42.667s-71.897 16.499-95.333 42.667c23.437 26.167 57.44 42.667 95.333 42.667zM404 526.667c27.202-28.574 65.434-46.667 108-46.667s80.798 18.093 108 46.667c12.467-19.75 20-42.918 20-68 0-70.692-57.308-128-128-128s-128 57.308-128 128c0 25.082 7.533 48.25 20 68zM627.333 136.667l-126-126v-170.667h21.333v162l119.333 119.333z" />
<glyph unicode="&#xe658;" glyph-name="transformer_bg" data-tags="transformer_bg" d="M512 565.333c-70.692 0-128-57.308-128-128 0-25.082 7.533-48.25 20-68 27.202 28.574 65.434 46.667 108 46.667s80.798-18.093 108-46.667c12.467 19.75 20 42.918 20 68 0 70.692-57.308 128-128 128zM512 394.667c-37.893 0-71.897-16.499-95.333-42.667 23.437-26.167 57.44-42.667 95.333-42.667s71.897 16.499 95.333 42.667c-23.437 26.167-57.44 42.667-95.333 42.667zM404 334.667c-12.467-19.75-20-42.918-20-68 0-70.692 57.308-128 128-128s128 57.308 128 128c0 25.082-7.533 48.25-20 68-27.202-28.574-65.434-46.667-108-46.667s-80.798 18.093-108 46.667z" />
<glyph unicode="&#xe659;" glyph-name="transformer_fg" data-tags="transformer_fg" d="M501.333 864v-278c-77.493-5.473-138.667-69.781-138.667-148.667 0-31.795 9.73-61.116 26.667-85.333-16.937-24.217-26.667-53.539-26.667-85.333 0-78.886 61.174-143.194 138.667-148.667v-278h21.333v278c77.493 5.473 138.667 69.781 138.667 148.667 0 31.795-9.73 61.116-26.667 85.333 16.937 24.217 26.667 53.539 26.667 85.333 0 78.886-61.174 143.194-138.667 148.667v278h-21.333zM512 565.333c70.692 0 128-57.308 128-128 0-25.082-7.533-48.25-20-68-27.202 28.574-65.434 46.667-108 46.667s-80.798-18.093-108-46.667c-12.467 19.75-20 42.918-20 68 0 70.692 57.308 128 128 128zM512 394.667c37.893 0 71.897-16.499 95.333-42.667-23.437-26.167-57.44-42.667-95.333-42.667s-71.897 16.499-95.333 42.667c23.437 26.167 57.44 42.667 95.333 42.667zM404 334.667c27.202-28.574 65.434-46.667 108-46.667s80.798 18.093 108 46.667c12.467-19.75 20-42.918 20-68 0-70.692-57.308-128-128-128s-128 57.308-128 128c0 25.082 7.533 48.25 20 68z" />
<glyph unicode="&#xe65a;" glyph-name="transformer-powerswitch-border-open_bg" data-tags="transformer-powerswitch-border-open_bg" d="M277.333 842.667v-981.333h469.333v981.333z" />
<glyph unicode="&#xe65b;" glyph-name="transformer-powerswitch-border-open_fg" data-tags="transformer-powerswitch-border-open_fg" d="M256 864v-1024h512v1024h-512zM277.333 842.667h224v-64.667c-77.493-5.473-138.667-69.781-138.667-148.667 0-31.795 9.73-61.116 26.667-85.333-16.937-24.217-26.667-53.539-26.667-85.333 0-78.886 61.174-143.194 138.667-148.667v-84l-34.667 34-14.667-15.333 45.333-45.333-45.333-44.667 14.667-16 45.333 45.333 45.333-45.333 14.667 16-45.333 44.667 45.333 44.667-14.667 16-34.667-34v84c77.493 5.473 138.667 69.781 138.667 148.667 0 31.795-9.73 61.116-26.667 85.333 16.937 24.217 26.667 53.539 26.667 85.333 0 78.886-61.174 143.194-138.667 148.667v64h224v-980.667h-224v140.667l119.333 119.333-14.667 15.333-126-126v-149.333h-224v981.333zM512 757.333c70.692 0 128-57.308 128-128 0-25.082-7.533-48.25-20-68-27.202 28.574-65.434 46.667-108 46.667s-80.798-18.093-108-46.667c-12.467 19.75-20 42.918-20 68 0 70.692 57.308 128 128 128zM512 586.667c37.893 0 71.897-16.499 95.333-42.667-23.437-26.167-57.44-42.667-95.333-42.667s-71.897 16.499-95.333 42.667c23.437 26.167 57.44 42.667 95.333 42.667zM404 526.667c27.202-28.574 65.434-46.667 108-46.667s80.798 18.093 108 46.667c12.467-19.75 20-42.918 20-68 0-70.692-57.308-128-128-128s-128 57.308-128 128c0 25.082 7.533 48.25 20 68z" />
<glyph unicode="&#xe65c;" glyph-name="useswitch-border-closed_bg" data-tags="useswitch-border-closed_bg" d="M256 864v-1024h512v1024z" />
<glyph unicode="&#xe65d;" glyph-name="useswitch-border-closed_fg" data-tags="useswitch-border-closed_fg" d="M256 864v-1024h512v1024zM522.667 175.333l36.667-36.667 16 17.333-48 46.667 48.667 47.333-16 16.667-37.333-36v100h117.333v426.667h-117.333v84.667h224v-980.667h-224v314zM501.333 176.667v-315.333h-224v981.333h224v-85.333h-117.333v-426.667h116.667v-100.667l-36 36.667-16.667-16 48-48-48-46.667 16.667-17.333zM405.333 736h96l-0.667-384h-95.333zM522.667 736h96v-384h-96z" />
<glyph unicode="&#xe65e;" glyph-name="useswitch-border-open_bg" data-tags="useswitch-border-open_bg" d="M256 864v-1024h512v1024z" />
<glyph unicode="&#xe65f;" glyph-name="useswitch-border-open_fg" data-tags="useswitch-border-open_fg" d="M256 864v-1024h512v1024h-512zM277.333 842.667h224v-85.333h-117.333v-426.667h116.667v-100.667l-36 36.667-16.667-16 48-48-48-46.667 16.667-17.333 46.667 48 48-48 16 17.333-48 46.667 48.667 47.333-16 16.667-37.333-36v100h117.333v426.667h-117.333v84.667h224v-980.667h-224v140.667l119.333 119.333-14.667 15.333-126-126v-149.333h-224v981.333zM405.333 736h96l-0.667-384h-95.333v384zM522.667 736h96v-384h-96v384z" />
<glyph unicode="&#xe660;" glyph-name="useswitch-closed_bg" data-tags="useswitch-closed_bg" d="M383 757.333v-426.667h256v426.667z" />
<glyph unicode="&#xe661;" glyph-name="useswitch-closed_fg" data-tags="useswitch-closed_fg" d="M500 864v-106.667h-117.333v-426.667h117.333v-117.333l-34.667 34-14.667-15.333 45.333-45.333-45.333-44.667 14.667-16 34.667 34.667v-320.667h21.333v320.667l34.667-34.667 16 16-45.333 44.667 45.333 44.667-16 16-34.667-34v117.333h117.333v426.667h-117.333v106.667h-21.333zM404 736h96v-384h-96v384zM521.333 736h96v-384h-96v384z" />
<glyph unicode="&#xe662;" glyph-name="useswitch-open_bg" data-tags="useswitch-open_bg" d="M383 757.333v-426.667h256v426.667z" />
<glyph unicode="&#xe663;" glyph-name="useswitch-open_fg" data-tags="useswitch-open_fg" d="M500 864v-106.667h-117.333v-426.667h117.333v-117.333l-34.667 34-14.667-15.333 45.333-45.333-45.333-44.667 14.667-16 45.333 45.333 45.333-45.333 16 16-45.333 44.667 45.333 44.667-16 16-34.667-34v117.333h117.333v426.667h-117.333v106.667h-21.333zM404 736h96v-384h-96v384zM521.333 736h96v-384h-96v384zM626.667 136.667l-126.667-126v-170.667h21.333v162l120 119.333-14.667 15.333z" />
<glyph unicode="&#xe664;" glyph-name="amp-meter_bg" data-tags="amp-meter_bg" d="M512 821.333c259.458 0 469.333-209.875 469.333-469.333s-209.875-469.333-469.333-469.333c-259.458 0-469.333 209.875-469.333 469.333s209.875 469.333 469.333 469.333z" />
<glyph unicode="&#xe665;" glyph-name="amp-meter_fg" data-tags="amp-meter_fg" d="M512 864c-282.517 0-512-229.483-512-512s229.483-512 512-512c282.517 0 512 229.483 512 512s-229.483 512-512 512zM512 821.333c259.458 0 469.333-209.875 469.333-469.333s-209.875-469.333-469.333-469.333c-259.458 0-469.333 209.875-469.333 469.333s209.875 469.333 469.333 469.333zM479.167 693.333l-226.667-597.333h57.167l68.917 183.667h267.667l67.667-183.667h57.583l-226.667 597.333h-65.667zM511.583 634.917l116-307.333h-231.583l115.583 307.333z" />
<glyph unicode="&#xe666;" glyph-name="duplex-outlet_bg" data-tags="duplex-outlet_bg" d="M981.333 352c0-164.949-133.718-298.667-298.667-298.667s-298.667 133.718-298.667 298.667c0 164.949 133.718 298.667 298.667 298.667s298.667-133.718 298.667-298.667z" />
<glyph unicode="&#xe667;" glyph-name="duplex-outlet_fg" data-tags="duplex-outlet_fg" d="M682.667 693.333c-142.312-0.075-264.249-87.231-315.42-211.067l-367.246-2.267v-42.667h352.417c-6.958-25.581-10.996-54.967-11.083-85.282 0.176-30.461 4.301-59.831 11.886-87.776l-353.22 2.392v-42.667h366.5c51.991-126.077 173.888-213.222 316.152-213.333 188.527 0 341.348 152.82 341.348 341.333s-152.82 341.333-341.333 341.333zM682.667 650.667c118.302-0.142 220.478-69.044 268.723-168.883l-538.14-1.783c49.010 101.598 151.147 170.49 269.393 170.667zM396.583 437.333h572c7.991-25.515 12.644-54.861 12.75-85.279-0.047-30.502-4.643-59.858-13.143-87.504l-571.44 2.116c-7.991 25.514-12.644 54.861-12.75 85.278 0.047 30.502 4.643 59.858 13.143 87.504zM413.167 224h538.917c-49.010-101.598-151.147-170.49-269.393-170.667-118.326 0.142-220.502 69.044-268.746 168.883z" />
<glyph unicode="&#xe668;" glyph-name="loud-speaker_bg" data-tags="loud-speaker_bg" d="M170.667 821.333v-938.667h341.333v938.667h-341.333zM983.667 766.75l-414.583-414.75 414.583-414.75v829.5z" />
<glyph unicode="&#xe669;" glyph-name="loud-speaker_fg" data-tags="loud-speaker_fg" d="M1024 864.167l-469.333-469.583v469.417h-426.667v-213.333h-128v-42.667h128v-512h-128v-42.667h128v-213.333h426.667v469.417l469.333-469.583v1024.333zM170.667 821.333h341.333v-938.667h-341.333v938.667zM983.667 766.75v-829.5l-414.583 414.75 414.583 414.75z" />
<glyph unicode="&#xe66a;" glyph-name="potentiometer-1_bg" data-tags="potentiometer-1_bg" d="M42.667 693.333h469.333v-682.667h-469.333v682.667z" />
<glyph unicode="&#xe66b;" glyph-name="potentiometer-1_fg" data-tags="potentiometer-1_fg" d="M256 864v-128h-256v-768h256v-128h42.667v128h256v768h-256v128h-42.667zM554.667 373.333l170.667-128v106.667h298.667v512h-42.667v-469.333h-256v106.667l-170.667-128zM42.667 693.333h469.333v-682.667h-469.333v682.667z" />
<glyph unicode="&#xe66d;" glyph-name="potentiometer-2_fg" data-tags="potentiometer-2_fg" d="M213.333 864v-261.75l-207.833-59.667 293.25-83.75-298.75-85.333 298.75-85.333-293.25-83.75 207.833-59.583v-304.833h42.667v335.583l-106.167 25.667 304.167 86.917-298.75 85.333 298.75 85.333-304.25 86.917 106.25 25.75v292.5h-42.667zM981.333 864v-469.333h-256v106.667l-170.667-128 170.667-128v106.667h298.667v512h-42.667z" />
<glyph unicode="&#xe66e;" glyph-name="range-outlet_bg" data-tags="range-outlet_bg" d="M981.333 330.667c0-176.731-143.269-320-320-320s-320 143.269-320 320c0 176.731 143.269 320 320 320s320-143.269 320-320z" />
<glyph unicode="&#xe66f;" glyph-name="range-outlet_fg" data-tags="range-outlet_fg" d="M661.333 693.333c-129.057-0.094-242.33-67.585-306.537-169.175l-354.797-1.491v-42.667h331.333c-17.492-37.454-28.948-81.040-31.863-126.946l-299.47-1.054v-42.667h299.75c2.825-46.919 14.141-90.522 32.43-130.254l-332.18 2.254v-42.667h354.167c65.043-103.013 178.206-170.481 307.139-170.667 200.323 0 362.694 162.371 362.694 362.667s-162.371 362.667-362.667 362.667zM661.333 650.667c104.174-0.14 196.665-50.037 255-127.195l-510.5-0.805c58.902 77.941 151.357 127.832 255.473 128zM378.5 480h565.583c20.054-37.083 33.175-80.674 36.443-126.984l-638.109-1.016c3.184 47.287 16.167 90.893 36.922 129.718zM342.083 309.333h638.167c-3.184-47.287-16.167-90.893-36.922-129.718l-564.745 1.718c-20.054 37.083-33.175 80.674-36.443 126.984zM405.75 138.667h511.083c-58.902-77.941-151.357-127.832-255.473-128-104.201 0.14-196.692 50.037-255.027 127.195z" />
<glyph unicode="&#xe671;" glyph-name="relay-opened_fg" data-tags="relay-opened_fg" d="M469.333 864v-384h-469.333v-42.667h981.333v42.667h-469.333v384h-42.667zM0 266.667v-42.667h469.333v-384h42.667v384h469.333v42.667h-981.333z" />
<glyph unicode="&#xe673;" glyph-name="relay-closed_fg" data-tags="relay-closed_fg" d="M512 480v384h-42.667v-384h-469.333v-42.667c327.111 0 654.222 0 981.333 0v42.667c-156.444 0-312.889 0-469.333 0zM981.333 719.333l-12.167-8.5-969.167-674.167v-52l12.167 8.5 969.167 674.167zM469.333 224v-384h42.667v384h469.333v42.667c-327.111 0-654.222 0-981.333 0v-42.667c156.444 0 312.889 0 469.333 0z" />
<glyph unicode="&#xe675;" glyph-name="shielded-wire_fg" data-tags="shielded-wire_fg" d="M520 819.833l-2.167-43.583 18.083-0.917 44.583-6.833 43.333-11 15.583-5.75 15 41-16.833 6.167-1 0.333-1.083 0.333-46 11.75-48.667 7.5h-1.167l-19.667 1zM383.333 809.167l-37.5-9.583-1.083-0.333-1-0.333-43.083-15.75-2-0.833-41.917-20.25-0.917-0.5-0.833-0.583 16.667-27.5 5-10.333 1 0.5 39.167 18.833 40.75 15 36.583 9.417-10.833 42.25zM775.833 729.5l-26.167-35 25.417-19.083 31.667-28.667 28.667-31.667 4.583-6.083 35 26.167-5.083 6.75-1.333 1.667-30.25 33.25-1.5 1.5-33.25 30.25-1.667 1.333-26.083 19.583zM146.833 680.5l-2.333-2.167-0.833-0.75-0.667-0.75-31-34.083-0.583-0.833-27-36.083-0.667-0.833-0.5-0.917-19.667-32.25 37.333-22.75 19.083 31.333 25.917 34.667 28.667 31.583 1.667 1.5-29.417 32.333zM944.417 517.167l-41-15 14.083-38.333 11-43.333 6.25-40.75 43.25 6.667-6.667 43.083-0.25 1.083-11.5 44.917-0.333 1.083-0.333 1-14.5 39.583zM13.75 444.25l-3.5-13.667-0.333-1.083-0.167-1.083-7.083-46.5-0.167-1.083-0.083-1.167-2.417-47.917v-2.167l1.167-21.917 32.25 1.667h947.917v42.667h-936.5l1.25 24.667 6.833 44.667 3.083 12-42.25 10.917zM917.917 198.75l-0.167-0.417h-0.083l-0.167-0.833-15-40.667-19.167-39.917-0.167-0.25-18.75-30.667 37.417-22.667 19.75 32.5 0.5 0.917 0.5 1 19.75 40.917 0.833 2 15.75 43.083 0.333 1 0.333 1.083 0.417 1.583-37.667 9.667-4.417 1.667zM67.417 187.917l-41.083-15 11.833-32.25 0.333-1 0.5-1 19.75-40.917 0.417-1 0.583-0.917 24-39.5 0.667-0.917 3.583-4.75 35 26.167-2.833 3.667-22.5 37.083-18.917 39.167-11.333 31.167zM782.417-7.417l-7.333-6.667-34.667-25.917-37-22.5-25.5-12.25 19-39.333 26.667 12.833 1 0.417 0.917 0.583 38.583 23.5 0.917 0.5 0.833 0.667 36.083 27 0.833 0.583 0.833 0.75 8.25 7.5-29.417 32.333zM207.167-14.833l-26.167-35 35.333-26.417 0.833-0.5 39.583-24.083 1-0.417 38.5-18.583 19 39.333-37.667 18.167-37.083 22.583-33.333 24.917zM559.167-110.5l-22.5-3.417-46-2.333-46 2.333-9.5 1.417-6.583-43.167 11.917-1.833 1.083-0.083 48-2.417h2.167l49.083 2.5 24.917 3.833-6.583 43.167z" />
<glyph unicode="&#xe677;" glyph-name="tie-point_fg" data-tags="tie-point_fg" d="M85.333 864v-386.333c-48.977-10.259-85.245-53.048-85.333-104.324 0.006-51.364 36.301-94.239 84.639-104.388l0.695-428.955h42.667v429c41.878 8.758 74.325 41.149 83.043 82.303l556.957 0.697v-127.667l256 149.167-256 149.167v-128h-557c-8.758 41.878-41.149 74.325-82.303 83.043l-0.697 386.29h-42.667z" />
<glyph unicode="&#xe678;" glyph-name="volt-meter_bg" data-tags="volt-meter_bg" d="M512 821.333c259.458 0 469.333-209.875 469.333-469.333s-209.875-469.333-469.333-469.333c-259.458 0-469.333 209.875-469.333 469.333s209.875 469.333 469.333 469.333z" />
<glyph unicode="&#xe679;" glyph-name="volt-meter_fg" data-tags="volt-meter_fg" d="M512 864c-282.517 0-512-229.483-512-512s229.483-512 512-512c282.517 0 512 229.483 512 512s-229.483 512-512 512zM512 821.333c259.458 0 469.333-209.875 469.333-469.333s-209.875-469.333-469.333-469.333c-259.458 0-469.333 209.875-469.333 469.333s209.875 469.333 469.333 469.333zM256 650.667l213.333-597.333h85.333l213.333 597.333h-62.917l-193.083-531.667-193.083 531.667h-62.917z" />
<glyph unicode="&#xe67a;" glyph-name="watt-meter_bg" data-tags="watt-meter_bg" d="M512 821.333c259.458 0 469.333-209.875 469.333-469.333s-209.875-469.333-469.333-469.333c-259.458 0-469.333 209.875-469.333 469.333s209.875 469.333 469.333 469.333z" />
<glyph unicode="&#xe67b;" glyph-name="watt-meter_fg" data-tags="watt-meter_fg" d="M512 864c-282.517 0-512-229.483-512-512s229.483-512 512-512c282.517 0 512 229.483 512 512s-229.483 512-512 512zM512 821.333c259.458 0 469.333-209.875 469.333-469.333s-209.875-469.333-469.333-469.333c-259.458 0-469.333 209.875-469.333 469.333s209.875 469.333 469.333 469.333zM532 650.667c-354.667-540.444-177.333-270.222 0 0zM188.417 565.333l136.25-512h69.083l108.667 390.083c4.917 17.597 9.833 37.653 14.75 60.167 1.553-6.211 7.017-26.266 16.333-60.167l107.917-390.083h65.25l140.5 512h-68.333l-80.333-328.75c-11.386-47.875-19.816-85.179-25.25-111.833-8.022 55.121-21.368 115.677-40 181.667l-73.333 258.917h-81.5l-97.833-345.833-22.917-94.75c-5.434 31.054-12.693 66.016-21.75 104.833l-77.667 335.75h-69.833z" />
</font>
</defs>
</svg>
